<?xml version="1.0" encoding="utf-8"?>
<!-- Generator: Adobe Illustrator 24.0.0, SVG Export Plug-In . SVG Version: 6.00 Build 0)  -->
<svg version="1.1" id="Layer_1" xmlns="http://www.w3.org/2000/svg" xmlns:xlink="http://www.w3.org/1999/xlink" x="0px" y="0px"
	 viewBox="0 0 40 40" style="enable-background:new 0 0 40 40;" xml:space="preserve">
<style type="text/css">
	.st0{fill:#FFffff;}
</style>
<g>
	<path class="st0" d="M12.65,39.31c-0.92,0-1.7-0.32-2.35-0.97c-0.65-0.65-0.97-1.43-0.97-2.35c0-0.92,0.32-1.7,0.97-2.35
		c0.65-0.65,1.43-0.97,2.35-0.97c0.92,0,1.7,0.32,2.35,0.97c0.65,0.65,0.97,1.43,0.97,2.35c0,0.92-0.32,1.7-0.97,2.35
		C14.36,38.98,13.58,39.31,12.65,39.31z M31.09,39.31c-0.92,0-1.7-0.32-2.35-0.97c-0.65-0.65-0.97-1.43-0.97-2.35
		c0-0.92,0.32-1.7,0.97-2.35c0.65-0.65,1.43-0.97,2.35-0.97s1.7,0.32,2.35,0.97c0.65,0.65,0.97,1.43,0.97,2.35
		c0,0.92-0.32,1.7-0.97,2.35C32.79,38.98,32.01,39.31,31.09,39.31z M9.3,5.16h25.71c1.11,0,1.96,0.49,2.54,1.48s0.6,1.99,0.05,3
		l-5.45,9.89c-0.4,0.65-0.9,1.18-1.5,1.59c-0.6,0.42-1.29,0.62-2.06,0.62H13.92l-2.43,4.61h23.88v3.69H12.34
		c-1.56,0-2.67-0.53-3.34-1.59c-0.67-1.06-0.65-2.22,0.07-3.47l2.85-5.25L5.1,5.16H1.27V1.47h6.3L9.3,5.16z"/>
</g>
</svg>
